@startuml
class Tirocinio{
    descrizione: String
    dataInizio: Date
    dataFine: Date
    esito: String
}
note left of Tirocinio : Il valore di esito può essere\n solo "Accettato", "Rifiutato",\n "In riciesta di approvazione"


class TirocinioInterno extends Tirocinio{
    docenteRiferimento: String
    co_tutor1: String
    co_tutor2: String
}

class TirocinioEsterno extends Tirocinio{
    azienda: String
    nome: String
    cognome: String
    email: String
}

class Studente{
    Tirocinio richiesta(string tipo, descrizione string, Date dataInizio, Date dataFine, String docenteRiferimento)
    Tirocinio richiesta(string tipo, descrizione string, Date dataInizio, Date dataFine, String docenteRiferimento, String co_tutor1, String co_tutor2)
    Tirocinio richiesta(string tipo, descrizione string, Date dataInizio, Date dataFine, String azienda, String nome, String cognome, String email)
    Tirocinio richiesta(string tipo, descrizione string, Date dataInizio, Date dataFine, String docenteRiferimento, String co_tutor1)
}

class Commissione{
    void esitoRichiesta(Tirocinio, String esito)
}

Studente "1..*"--"1" Tirocinio
Tirocinio "*"--"*" Commissione

@enduml